<?xml version="1.0" encoding="UTF-8" standalone="no"?>
<!DOCTYPE svg PUBLIC "-//W3C//DTD SVG 1.1//EN"
 "http://www.w3.org/Graphics/SVG/1.1/DTD/svg11.dtd">
<!-- Generated by graphviz version 2.44.1 (0)
 -->
<!-- Pages: 1 -->
<svg width="438pt" height="139pt"
 viewBox="0.00 0.00 438.37 139.34" xmlns="http://www.w3.org/2000/svg" xmlns:xlink="http://www.w3.org/1999/xlink">
<g id="graph0" class="graph" transform="scale(1 1) rotate(0) translate(4 135.34)">
<polygon fill="white" stroke="transparent" points="-4,4 -4,-135.34 434.37,-135.34 434.37,4 -4,4"/>
<!-- begin -->
<g id="node1" class="node">
<title>begin</title>
<ellipse fill="none" stroke="black" cx="36.4" cy="-36.4" rx="36.29" ry="36.29"/>
<text text-anchor="middle" x="36.4" y="-32.7" font-family="Times,serif" font-size="14.00">begin</text>
</g>
<!-- header -->
<g id="node2" class="node">
<title>header</title>
<ellipse fill="none" stroke="black" cx="151.69" cy="-77.4" rx="42.79" ry="42.79"/>
<text text-anchor="middle" x="151.69" y="-73.7" font-family="Times,serif" font-size="14.00">header</text>
</g>
<!-- begin&#45;&gt;header -->
<g id="edge1" class="edge">
<title>begin&#45;&gt;header</title>
<path fill="none" stroke="black" d="M70.78,-48.48C80.47,-51.98 91.27,-55.89 101.71,-59.67"/>
<polygon fill="black" stroke="black" points="100.56,-62.98 111.15,-63.09 102.94,-56.4 100.56,-62.98"/>
</g>
<!-- end -->
<g id="node4" class="node">
<title>end</title>
<ellipse fill="none" stroke="black" cx="402.42" cy="-36.4" rx="27.9" ry="27.9"/>
<text text-anchor="middle" x="402.42" y="-32.7" font-family="Times,serif" font-size="14.00">end</text>
</g>
<!-- begin&#45;&gt;end -->
<g id="edge5" class="edge">
<title>begin&#45;&gt;end</title>
<path fill="none" stroke="black" d="M71.97,-28.52C128.22,-16.89 242.88,1.83 338.48,-14.4 347.95,-16 357.89,-18.88 367.01,-22.04"/>
<polygon fill="black" stroke="black" points="365.92,-25.36 376.52,-25.52 368.33,-18.79 365.92,-25.36"/>
</g>
<!-- sequence -->
<g id="node3" class="node">
<title>sequence</title>
<ellipse fill="none" stroke="black" cx="284.53" cy="-77.4" rx="53.89" ry="53.89"/>
<text text-anchor="middle" x="284.53" y="-73.7" font-family="Times,serif" font-size="14.00">sequence</text>
</g>
<!-- header&#45;&gt;sequence -->
<g id="edge2" class="edge">
<title>header&#45;&gt;sequence</title>
<path fill="none" stroke="black" d="M194.45,-71.06C202.73,-70.76 211.59,-70.62 220.4,-70.65"/>
<polygon fill="black" stroke="black" points="220.63,-74.15 230.67,-70.76 220.71,-67.15 220.63,-74.15"/>
</g>
<!-- sequence&#45;&gt;header -->
<g id="edge4" class="edge">
<title>sequence&#45;&gt;header</title>
<path fill="none" stroke="black" d="M230.67,-84.03C222.1,-84.19 213.23,-84.18 204.68,-84.02"/>
<polygon fill="black" stroke="black" points="204.54,-80.51 194.45,-83.74 204.35,-87.51 204.54,-80.51"/>
</g>
<!-- sequence&#45;&gt;end -->
<g id="edge3" class="edge">
<title>sequence&#45;&gt;end</title>
<path fill="none" stroke="black" d="M335.69,-59.65C345.95,-56.02 356.54,-52.27 366.15,-48.88"/>
<polygon fill="black" stroke="black" points="367.49,-52.12 375.75,-45.48 365.15,-45.52 367.49,-52.12"/>
</g>
</g>
</svg>
