<?xml version="1.0" encoding="UTF-8" standalone="no"?>
<!DOCTYPE svg PUBLIC "-//W3C//DTD SVG 1.1//EN"
 "http://www.w3.org/Graphics/SVG/1.1/DTD/svg11.dtd">
<!-- Generated by graphviz version 2.44.1 (0)
 -->
<!-- Pages: 1 -->
<svg width="592pt" height="197pt"
 viewBox="0.00 0.00 592.37 197.34" xmlns="http://www.w3.org/2000/svg" xmlns:xlink="http://www.w3.org/1999/xlink">
<g id="graph0" class="graph" transform="scale(1 1) rotate(0) translate(4 193.34)">
<polygon fill="white" stroke="transparent" points="-4,4 -4,-193.34 588.37,-193.34 588.37,4 -4,4"/>
<!-- begin -->
<g id="node1" class="node">
<title>begin</title>
<ellipse fill="none" stroke="black" cx="36.4" cy="-36.4" rx="36.29" ry="36.29"/>
<text text-anchor="middle" x="36.4" y="-32.7" font-family="Times,serif" font-size="14.00">begin</text>
</g>
<!-- header -->
<g id="node2" class="node">
<title>header</title>
<ellipse fill="none" stroke="black" cx="194.69" cy="-91.4" rx="42.79" ry="42.79"/>
<text text-anchor="middle" x="194.69" y="-87.7" font-family="Times,serif" font-size="14.00">header</text>
</g>
<!-- begin&#45;&gt;header -->
<g id="edge1" class="edge">
<title>begin&#45;&gt;header</title>
<path fill="none" stroke="black" d="M70.93,-48.2C92.29,-55.71 120.34,-65.59 144.24,-74"/>
<polygon fill="black" stroke="black" points="143.26,-77.36 153.85,-77.38 145.58,-70.76 143.26,-77.36"/>
<text text-anchor="middle" x="112.29" y="-72.2" font-family="Times,serif" font-size="14.00">&gt;[a&#45;z]</text>
</g>
<!-- end -->
<g id="node4" class="node">
<title>end</title>
<ellipse fill="none" stroke="black" cx="556.42" cy="-36.4" rx="27.9" ry="27.9"/>
<text text-anchor="middle" x="556.42" y="-32.7" font-family="Times,serif" font-size="14.00">end</text>
</g>
<!-- begin&#45;&gt;end -->
<g id="edge7" class="edge">
<title>begin&#45;&gt;end</title>
<path fill="none" stroke="black" d="M73,-36.4C167.19,-36.4 422.24,-36.4 518.22,-36.4"/>
<polygon fill="black" stroke="black" points="518.33,-39.9 528.33,-36.4 518.33,-32.9 518.33,-39.9"/>
</g>
<!-- header&#45;&gt;header -->
<g id="edge2" class="edge">
<title>header&#45;&gt;header</title>
<path fill="none" stroke="black" d="M179.36,-131.51C179.89,-143.22 185,-152.29 194.69,-152.29 201.35,-152.29 205.85,-148.01 208.18,-141.52"/>
<polygon fill="black" stroke="black" points="211.65,-141.98 210.02,-131.51 204.77,-140.72 211.65,-141.98"/>
<text text-anchor="middle" x="194.69" y="-156.09" font-family="Times,serif" font-size="14.00">[a&#45;z]</text>
</g>
<!-- sequence -->
<g id="node3" class="node">
<title>sequence</title>
<ellipse fill="none" stroke="black" cx="392.53" cy="-102.4" rx="53.89" ry="53.89"/>
<text text-anchor="middle" x="392.53" y="-98.7" font-family="Times,serif" font-size="14.00">sequence</text>
</g>
<!-- header&#45;&gt;sequence -->
<g id="edge3" class="edge">
<title>header&#45;&gt;sequence</title>
<path fill="none" stroke="black" d="M237.7,-93.76C264.04,-95.24 298.5,-97.17 328.13,-98.84"/>
<polygon fill="black" stroke="black" points="328.2,-102.35 338.38,-99.41 328.59,-95.36 328.2,-102.35"/>
<text text-anchor="middle" x="288.09" y="-101.2" font-family="Times,serif" font-size="14.00">\n[ACGT]</text>
</g>
<!-- sequence&#45;&gt;header -->
<g id="edge5" class="edge">
<title>sequence&#45;&gt;header</title>
<path fill="none" stroke="black" d="M342.58,-81.15C335.32,-78.77 327.84,-76.73 320.59,-75.4 292.17,-70.17 284.23,-71.64 255.59,-75.4 252.38,-75.82 249.11,-76.36 245.83,-76.99"/>
<polygon fill="black" stroke="black" points="245.04,-73.58 236,-79.1 246.51,-80.42 245.04,-73.58"/>
<text text-anchor="middle" x="288.09" y="-79.2" font-family="Times,serif" font-size="14.00">\n&gt;</text>
</g>
<!-- sequence&#45;&gt;sequence -->
<g id="edge4" class="edge">
<title>sequence&#45;&gt;sequence</title>
<path fill="none" stroke="black" d="M375.29,-153.81C376.78,-165.65 382.53,-174.34 392.53,-174.34 399.41,-174.34 404.28,-170.23 407.13,-163.82"/>
<polygon fill="black" stroke="black" points="410.6,-164.37 409.77,-153.81 403.83,-162.59 410.6,-164.37"/>
<text text-anchor="middle" x="392.53" y="-178.14" font-family="Times,serif" font-size="14.00">[ACGT]</text>
</g>
<!-- sequence&#45;&gt;end -->
<g id="edge6" class="edge">
<title>sequence&#45;&gt;end</title>
<path fill="none" stroke="black" d="M442.98,-82.24C468.09,-72 497.99,-59.81 520.65,-50.57"/>
<polygon fill="black" stroke="black" points="522.25,-53.7 530.19,-46.68 519.61,-47.22 522.25,-53.7"/>
<text text-anchor="middle" x="487.48" y="-76.2" font-family="Times,serif" font-size="14.00">\nEOF</text>
</g>
</g>
</svg>
