<?xml version="1.0" encoding="UTF-8" standalone="no"?>
<!DOCTYPE svg PUBLIC "-//W3C//DTD SVG 1.1//EN"
 "http://www.w3.org/Graphics/SVG/1.1/DTD/svg11.dtd">
<!-- Generated by graphviz version 2.44.1 (0)
 -->
<!-- Pages: 1 -->
<svg width="2969pt" height="358pt"
 viewBox="0.00 0.00 2969.09 358.00" xmlns="http://www.w3.org/2000/svg" xmlns:xlink="http://www.w3.org/1999/xlink">
<g id="graph0" class="graph" transform="scale(1 1) rotate(0) translate(4 354)">
<polygon fill="white" stroke="transparent" points="-4,4 -4,-354 2965.09,-354 2965.09,4 -4,4"/>
<!-- start -->
<g id="node1" class="node">
<title>start</title>
<ellipse fill="black" stroke="black" cx="1.8" cy="-45" rx="1.8" ry="1.8"/>
</g>
<!-- 1 -->
<g id="node2" class="node">
<title>1</title>
<ellipse fill="none" stroke="black" cx="62.6" cy="-45" rx="18" ry="18"/>
<ellipse fill="none" stroke="black" cx="62.6" cy="-45" rx="22" ry="22"/>
<text text-anchor="middle" x="62.6" y="-41.3" font-family="Times,serif" font-size="14.00">1</text>
</g>
<!-- start&#45;&gt;1 -->
<g id="edge1" class="edge">
<title>start&#45;&gt;1</title>
<path fill="none" stroke="black" d="M3.82,-45C7.19,-45 18.44,-45 30.12,-45"/>
<polygon fill="black" stroke="black" points="30.31,-48.5 40.31,-45 30.31,-41.5 30.31,-48.5"/>
</g>
<!-- 1&#45;&gt;1 -->
<g id="edge3" class="edge">
<title>1&#45;&gt;1</title>
<path fill="none" stroke="black" d="M55.28,-65.99C54.38,-76.09 56.82,-85 62.6,-85 66.3,-85 68.64,-81.34 69.6,-76.06"/>
<polygon fill="black" stroke="black" points="73.1,-76.1 69.92,-65.99 66.1,-75.87 73.1,-76.1"/>
<text text-anchor="middle" x="62.6" y="-88.8" font-family="Times,serif" font-size="14.00">&#39;\n&#39;</text>
</g>
<!-- 2 -->
<g id="node3" class="node">
<title>2</title>
<ellipse fill="none" stroke="black" cx="201.6" cy="-83" rx="18" ry="18"/>
<text text-anchor="middle" x="201.6" y="-79.3" font-family="Times,serif" font-size="14.00">2</text>
</g>
<!-- 1&#45;&gt;2 -->
<g id="edge2" class="edge">
<title>1&#45;&gt;2</title>
<path fill="none" stroke="black" d="M83.8,-51.38C89.83,-53.24 96.47,-55.24 102.6,-57 126.7,-63.9 154.31,-71.17 174.07,-76.26"/>
<polygon fill="black" stroke="black" points="173.34,-79.69 183.9,-78.78 175.08,-72.91 173.34,-79.69"/>
<text text-anchor="middle" x="134.1" y="-78.8" font-family="Times,serif" font-size="14.00">&#39;&gt;&#39;/enter</text>
</g>
<!-- 3 -->
<g id="node4" class="node">
<title>3</title>
<ellipse fill="none" stroke="black" cx="201.6" cy="-18" rx="18" ry="18"/>
<text text-anchor="middle" x="201.6" y="-14.3" font-family="Times,serif" font-size="14.00">3</text>
</g>
<!-- 1&#45;&gt;3 -->
<g id="edge4" class="edge">
<title>1&#45;&gt;3</title>
<path fill="none" stroke="black" d="M76.46,-27.89C83.29,-20.26 92.37,-12.08 102.6,-8 125.73,1.23 154.26,-3.28 174.55,-8.88"/>
<polygon fill="black" stroke="black" points="173.76,-12.3 184.35,-11.84 175.79,-5.6 173.76,-12.3"/>
<text text-anchor="middle" x="134.1" y="-11.8" font-family="Times,serif" font-size="14.00">&#39;\r&#39;</text>
</g>
<!-- 4 -->
<g id="node5" class="node">
<title>4</title>
<ellipse fill="none" stroke="black" cx="411.6" cy="-150" rx="18" ry="18"/>
<text text-anchor="middle" x="411.6" y="-146.3" font-family="Times,serif" font-size="14.00">4</text>
</g>
<!-- 2&#45;&gt;4 -->
<g id="edge6" class="edge">
<title>2&#45;&gt;4</title>
<path fill="none" stroke="black" d="M218.92,-88.26C254.92,-99.85 341.36,-127.7 384.79,-141.69"/>
<polygon fill="black" stroke="black" points="383.76,-145.03 394.35,-144.77 385.91,-138.37 383.76,-145.03"/>
<text text-anchor="middle" x="306.6" y="-140.8" font-family="Times,serif" font-size="14.00">[\0&#45;\b\x0e&#45;\x1f!&#45;\xff]</text>
</g>
<!-- 3&#45;&gt;1 -->
<g id="edge5" class="edge">
<title>3&#45;&gt;1</title>
<path fill="none" stroke="black" d="M183.5,-21.37C161.22,-25.76 121.84,-33.52 94.32,-38.95"/>
<polygon fill="black" stroke="black" points="93.54,-35.53 84.41,-40.9 94.9,-42.4 93.54,-35.53"/>
<text text-anchor="middle" x="134.1" y="-41.8" font-family="Times,serif" font-size="14.00">&#39;\n&#39;</text>
</g>
<!-- 4&#45;&gt;4 -->
<g id="edge10" class="edge">
<title>4&#45;&gt;4</title>
<path fill="none" stroke="black" d="M401.45,-165.17C398.37,-175.66 401.76,-186 411.6,-186 418.06,-186 421.74,-181.55 422.63,-175.52"/>
<polygon fill="black" stroke="black" points="426.09,-174.83 421.75,-165.17 419.11,-175.43 426.09,-174.83"/>
<text text-anchor="middle" x="411.6" y="-189.8" font-family="Times,serif" font-size="14.00">[\0&#45;\b\x0e&#45;\x1f!&#45;\xff]</text>
</g>
<!-- 5 -->
<g id="node6" class="node">
<title>5</title>
<ellipse fill="none" stroke="black" cx="1006.6" cy="-190" rx="18" ry="18"/>
<text text-anchor="middle" x="1006.6" y="-186.3" font-family="Times,serif" font-size="14.00">5</text>
</g>
<!-- 4&#45;&gt;5 -->
<g id="edge7" class="edge">
<title>4&#45;&gt;5</title>
<path fill="none" stroke="black" d="M424.17,-163.01C430.54,-169.49 438.89,-176.99 447.6,-182 474.65,-197.57 483.76,-198.22 514.6,-203 689.69,-230.15 904.01,-204.66 978.54,-194.1"/>
<polygon fill="black" stroke="black" points="979.1,-197.55 988.5,-192.66 978.1,-190.63 979.1,-197.55"/>
<text text-anchor="middle" x="694.1" y="-218.8" font-family="Times,serif" font-size="14.00">&#39;\n&#39;/exit_header</text>
</g>
<!-- 6 -->
<g id="node7" class="node">
<title>6</title>
<ellipse fill="none" stroke="black" cx="821.1" cy="-134" rx="18" ry="18"/>
<text text-anchor="middle" x="821.1" y="-130.3" font-family="Times,serif" font-size="14.00">6</text>
</g>
<!-- 4&#45;&gt;6 -->
<g id="edge8" class="edge">
<title>4&#45;&gt;6</title>
<path fill="none" stroke="black" d="M429.47,-146.53C449.62,-142.57 484.4,-136.35 514.6,-134 617,-126.02 739.3,-130.11 792.79,-132.58"/>
<polygon fill="black" stroke="black" points="792.68,-136.08 802.84,-133.06 793.02,-129.09 792.68,-136.08"/>
<text text-anchor="middle" x="568.1" y="-137.8" font-family="Times,serif" font-size="14.00">&#39;\r&#39;/exit_header</text>
</g>
<!-- 7 -->
<g id="node8" class="node">
<title>7</title>
<ellipse fill="none" stroke="black" cx="568.1" cy="-176" rx="18" ry="18"/>
<text text-anchor="middle" x="568.1" y="-172.3" font-family="Times,serif" font-size="14.00">7</text>
</g>
<!-- 4&#45;&gt;7 -->
<g id="edge9" class="edge">
<title>4&#45;&gt;7</title>
<path fill="none" stroke="black" d="M429.43,-152.83C456.13,-157.33 508.43,-166.13 540.33,-171.49"/>
<polygon fill="black" stroke="black" points="539.85,-174.96 550.29,-173.17 541.01,-168.06 539.85,-174.96"/>
<text text-anchor="middle" x="472.1" y="-166.8" font-family="Times,serif" font-size="14.00">[\t\v\f ]</text>
</g>
<!-- 8 -->
<g id="node9" class="node">
<title>8</title>
<ellipse fill="none" stroke="black" cx="1432.6" cy="-202" rx="18" ry="18"/>
<ellipse fill="none" stroke="black" cx="1432.6" cy="-202" rx="22" ry="22"/>
<text text-anchor="middle" x="1432.6" y="-198.3" font-family="Times,serif" font-size="14.00">8</text>
</g>
<!-- 5&#45;&gt;8 -->
<g id="edge14" class="edge">
<title>5&#45;&gt;8</title>
<path fill="none" stroke="black" d="M1024.75,-190.49C1089.09,-192.31 1316.73,-198.75 1400.43,-201.12"/>
<polygon fill="black" stroke="black" points="1400.48,-204.62 1410.58,-201.41 1400.68,-197.62 1400.48,-204.62"/>
<text text-anchor="middle" x="1245.1" y="-203.8" font-family="Times,serif" font-size="14.00">[*\&#45;A&#45;DGHKMNR&#45;WYa&#45;dghkmnr&#45;wy]/enter</text>
</g>
<!-- 6&#45;&gt;5 -->
<g id="edge13" class="edge">
<title>6&#45;&gt;5</title>
<path fill="none" stroke="black" d="M838.75,-138.08C857.53,-142.76 888.92,-150.85 915.6,-159 937.5,-165.69 962.06,-174.22 979.99,-180.64"/>
<polygon fill="black" stroke="black" points="978.86,-183.95 989.45,-184.05 981.23,-177.37 978.86,-183.95"/>
<text text-anchor="middle" x="904.6" y="-162.8" font-family="Times,serif" font-size="14.00">&#39;\n&#39;</text>
</g>
<!-- 7&#45;&gt;5 -->
<g id="edge11" class="edge">
<title>7&#45;&gt;5</title>
<path fill="none" stroke="black" d="M586.21,-176.55C653.04,-178.69 896.76,-186.51 978.59,-189.13"/>
<polygon fill="black" stroke="black" points="978.5,-192.63 988.61,-189.45 978.72,-185.64 978.5,-192.63"/>
<text text-anchor="middle" x="821.1" y="-188.8" font-family="Times,serif" font-size="14.00">&#39;\n&#39;/exit_header</text>
</g>
<!-- 7&#45;&gt;6 -->
<g id="edge12" class="edge">
<title>7&#45;&gt;6</title>
<path fill="none" stroke="black" d="M585.81,-171.48C600.03,-167.75 621.04,-162.51 639.6,-159 693.69,-148.76 757.64,-140.89 793.05,-136.9"/>
<polygon fill="black" stroke="black" points="793.53,-140.37 803.09,-135.79 792.76,-133.41 793.53,-140.37"/>
<text text-anchor="middle" x="694.1" y="-162.8" font-family="Times,serif" font-size="14.00">&#39;\r&#39;/exit_header</text>
</g>
<!-- 8&#45;&gt;8 -->
<g id="edge18" class="edge">
<title>8&#45;&gt;8</title>
<path fill="none" stroke="black" d="M1413.49,-213.06C1399.05,-226.37 1405.42,-242 1432.6,-242 1454.26,-242 1462.7,-232.07 1457.93,-221.31"/>
<polygon fill="black" stroke="black" points="1460.53,-218.93 1451.71,-213.06 1454.94,-223.15 1460.53,-218.93"/>
<text text-anchor="middle" x="1432.6" y="-245.8" font-family="Times,serif" font-size="14.00">[*\&#45;A&#45;DGHKMNR&#45;WYa&#45;dghkmnr&#45;wy]</text>
</g>
<!-- 9 -->
<g id="node10" class="node">
<title>9</title>
<ellipse fill="none" stroke="black" cx="2327.6" cy="-196" rx="18" ry="18"/>
<ellipse fill="none" stroke="black" cx="2327.6" cy="-196" rx="22" ry="22"/>
<text text-anchor="middle" x="2327.6" y="-192.3" font-family="Times,serif" font-size="14.00">9</text>
</g>
<!-- 8&#45;&gt;9 -->
<g id="edge15" class="edge">
<title>8&#45;&gt;9</title>
<path fill="none" stroke="black" d="M1453.59,-209.31C1459.62,-211.2 1466.31,-212.99 1472.6,-214 1764.02,-260.97 1841.44,-224.89 2136.6,-228 2185.93,-228.52 2198.87,-235.72 2247.6,-228 2266.06,-225.08 2270.27,-222 2287.6,-215 2291.16,-213.56 2294.85,-211.94 2298.48,-210.27"/>
<polygon fill="black" stroke="black" points="2300.28,-213.29 2307.8,-205.82 2297.26,-206.97 2300.28,-213.29"/>
<text text-anchor="middle" x="1971.1" y="-239.8" font-family="Times,serif" font-size="14.00">&#39;\n&#39;/exit_seqline</text>
</g>
<!-- 10 -->
<g id="node11" class="node">
<title>10</title>
<ellipse fill="none" stroke="black" cx="2192.1" cy="-196" rx="23" ry="23"/>
<text text-anchor="middle" x="2192.1" y="-192.3" font-family="Times,serif" font-size="14.00">10</text>
</g>
<!-- 8&#45;&gt;10 -->
<g id="edge16" class="edge">
<title>8&#45;&gt;10</title>
<path fill="none" stroke="black" d="M1454.65,-201.83C1560.06,-201 2030.54,-197.27 2158.75,-196.26"/>
<polygon fill="black" stroke="black" points="2159.09,-199.75 2169.07,-196.17 2159.04,-192.75 2159.09,-199.75"/>
<text text-anchor="middle" x="1751.1" y="-202.8" font-family="Times,serif" font-size="14.00">&#39;\r&#39;/exit_seqline</text>
</g>
<!-- 11 -->
<g id="node12" class="node">
<title>11</title>
<ellipse fill="none" stroke="black" cx="1751.1" cy="-141" rx="22.96" ry="22.96"/>
<ellipse fill="none" stroke="black" cx="1751.1" cy="-141" rx="27" ry="27"/>
<text text-anchor="middle" x="1751.1" y="-137.3" font-family="Times,serif" font-size="14.00">11</text>
</g>
<!-- 8&#45;&gt;11 -->
<g id="edge17" class="edge">
<title>8&#45;&gt;11</title>
<path fill="none" stroke="black" d="M1450.05,-187.97C1456.66,-183.07 1464.6,-178.05 1472.6,-175 1554.89,-143.68 1659.9,-139.67 1714.11,-140"/>
<polygon fill="black" stroke="black" points="1714.21,-143.5 1724.25,-140.12 1714.29,-136.5 1714.21,-143.5"/>
<text text-anchor="middle" x="1575.6" y="-178.8" font-family="Times,serif" font-size="14.00">[\t\v\f ]</text>
</g>
<!-- eof8 -->
<g id="node13" class="node">
<title>eof8</title>
<ellipse fill="black" stroke="black" cx="1751.1" cy="-94" rx="1.8" ry="1.8"/>
</g>
<!-- 8&#45;&gt;eof8 -->
<g id="edge19" class="edge">
<title>8&#45;&gt;eof8</title>
<path fill="none" stroke="black" stroke-dasharray="5,2" d="M1437.76,-180.59C1442.65,-161.62 1452.76,-134.85 1472.6,-121 1559.17,-60.55 1699.69,-83.51 1739.36,-91.63"/>
<polygon fill="black" stroke="black" points="1738.79,-95.09 1749.31,-93.81 1740.29,-88.25 1738.79,-95.09"/>
<text text-anchor="middle" x="1575.6" y="-124.8" font-family="Times,serif" font-size="14.00">EOF/exit_seqline,exit_record</text>
</g>
<!-- 9&#45;&gt;2 -->
<g id="edge25" class="edge">
<title>9&#45;&gt;2</title>
<path fill="none" stroke="black" d="M2317.89,-176.24C2300.17,-139.41 2256.17,-64 2193.1,-64 410.6,-64 410.6,-64 410.6,-64 345.33,-64 269.02,-73.39 229.46,-78.97"/>
<polygon fill="black" stroke="black" points="228.94,-75.51 219.54,-80.4 229.93,-82.44 228.94,-75.51"/>
<text text-anchor="middle" x="1006.6" y="-67.8" font-family="Times,serif" font-size="14.00">&#39;&gt;&#39;/enter,exit_record</text>
</g>
<!-- 9&#45;&gt;8 -->
<g id="edge24" class="edge">
<title>9&#45;&gt;8</title>
<path fill="none" stroke="black" d="M2312.88,-212.42C2305.99,-219.7 2297.09,-227.79 2287.6,-233 2221.2,-269.45 2194.26,-251.49 2118.6,-255 1931.24,-263.7 1883.99,-258.97 1696.6,-251 1596.99,-246.76 1564.18,-278.4 1472.6,-239 1465.92,-236.13 1459.69,-231.57 1454.26,-226.63"/>
<polygon fill="black" stroke="black" points="1456.45,-223.87 1446.91,-219.25 1451.49,-228.81 1456.45,-223.87"/>
<text text-anchor="middle" x="1971.1" y="-262.8" font-family="Times,serif" font-size="14.00">[*\&#45;A&#45;DGHKMNR&#45;WYa&#45;dghkmnr&#45;wy]/enter</text>
</g>
<!-- 12 -->
<g id="node15" class="node">
<title>12</title>
<ellipse fill="none" stroke="black" cx="2735.84" cy="-190" rx="22.96" ry="22.96"/>
<ellipse fill="none" stroke="black" cx="2735.84" cy="-190" rx="27" ry="27"/>
<text text-anchor="middle" x="2735.84" y="-186.3" font-family="Times,serif" font-size="14.00">12</text>
</g>
<!-- 9&#45;&gt;12 -->
<g id="edge26" class="edge">
<title>9&#45;&gt;12</title>
<path fill="none" stroke="black" d="M2349.55,-192.29C2405.36,-183 2562.14,-160.63 2691.1,-178 2694.12,-178.41 2697.23,-178.97 2700.33,-179.62"/>
<polygon fill="black" stroke="black" points="2699.55,-183.03 2710.1,-181.98 2701.2,-176.23 2699.55,-183.03"/>
<text text-anchor="middle" x="2529.35" y="-177.8" font-family="Times,serif" font-size="14.00">&#39;\n&#39;</text>
</g>
<!-- 13 -->
<g id="node16" class="node">
<title>13</title>
<ellipse fill="none" stroke="black" cx="2938.34" cy="-291" rx="23" ry="23"/>
<text text-anchor="middle" x="2938.34" y="-287.3" font-family="Times,serif" font-size="14.00">13</text>
</g>
<!-- 9&#45;&gt;13 -->
<g id="edge27" class="edge">
<title>9&#45;&gt;13</title>
<path fill="none" stroke="black" d="M2340.48,-214.22C2347.41,-223.63 2356.9,-234.65 2367.6,-242 2497.49,-331.15 2552.12,-323.72 2709.1,-337 2792.8,-344.08 2819.91,-354.98 2897.59,-323 2903.26,-320.67 2908.77,-317.26 2913.79,-313.52"/>
<polygon fill="black" stroke="black" points="2916.17,-316.09 2921.72,-307.07 2911.75,-310.67 2916.17,-316.09"/>
<text text-anchor="middle" x="2632.6" y="-338.8" font-family="Times,serif" font-size="14.00">&#39;\r&#39;</text>
</g>
<!-- 14 -->
<g id="node17" class="node">
<title>14</title>
<ellipse fill="none" stroke="black" cx="2529.35" cy="-232" rx="22.96" ry="22.96"/>
<ellipse fill="none" stroke="black" cx="2529.35" cy="-232" rx="27" ry="27"/>
<text text-anchor="middle" x="2529.35" y="-228.3" font-family="Times,serif" font-size="14.00">14</text>
</g>
<!-- 9&#45;&gt;14 -->
<g id="edge28" class="edge">
<title>9&#45;&gt;14</title>
<path fill="none" stroke="black" d="M2349.6,-199.78C2383.67,-205.93 2451.37,-218.13 2492.98,-225.63"/>
<polygon fill="black" stroke="black" points="2492.49,-229.09 2502.96,-227.42 2493.73,-222.21 2492.49,-229.09"/>
<text text-anchor="middle" x="2426.1" y="-226.8" font-family="Times,serif" font-size="14.00">[\t\v\f ]</text>
</g>
<!-- eof9 -->
<g id="node18" class="node">
<title>eof9</title>
<ellipse fill="black" stroke="black" cx="2529.35" cy="-123" rx="1.8" ry="1.8"/>
</g>
<!-- 9&#45;&gt;eof9 -->
<g id="edge29" class="edge">
<title>9&#45;&gt;eof9</title>
<path fill="none" stroke="black" stroke-dasharray="5,2" d="M2335.36,-175.19C2341.34,-160.41 2351.64,-141.56 2367.6,-132 2416.61,-102.64 2489.82,-114.42 2517.35,-120.37"/>
<polygon fill="black" stroke="black" points="2516.68,-123.81 2527.22,-122.7 2518.29,-116.99 2516.68,-123.81"/>
<text text-anchor="middle" x="2426.1" y="-135.8" font-family="Times,serif" font-size="14.00">EOF/exit_record</text>
</g>
<!-- 10&#45;&gt;9 -->
<g id="edge23" class="edge">
<title>10&#45;&gt;9</title>
<path fill="none" stroke="black" d="M2215.14,-196C2236.95,-196 2270.53,-196 2295.14,-196"/>
<polygon fill="black" stroke="black" points="2295.41,-199.5 2305.41,-196 2295.41,-192.5 2295.41,-199.5"/>
<text text-anchor="middle" x="2276.6" y="-199.8" font-family="Times,serif" font-size="14.00">&#39;\n&#39;</text>
</g>
<!-- 11&#45;&gt;9 -->
<g id="edge20" class="edge">
<title>11&#45;&gt;9</title>
<path fill="none" stroke="black" d="M1778.06,-139.67C1866.91,-135.38 2158.21,-123.64 2247.6,-149 2267.24,-154.57 2286.97,-166.31 2301.8,-176.66"/>
<polygon fill="black" stroke="black" points="2299.78,-179.51 2309.93,-182.53 2303.88,-173.84 2299.78,-179.51"/>
<text text-anchor="middle" x="2192.1" y="-152.8" font-family="Times,serif" font-size="14.00">&#39;\n&#39;/exit_seqline</text>
</g>
<!-- 11&#45;&gt;10 -->
<g id="edge21" class="edge">
<title>11&#45;&gt;10</title>
<path fill="none" stroke="black" d="M1777.52,-145.38C1791.15,-147.62 1808.25,-150.22 1823.6,-152 1954.24,-167.12 1989.21,-151.47 2118.6,-175 2132.64,-177.55 2147.85,-181.73 2160.7,-185.7"/>
<polygon fill="black" stroke="black" points="2159.84,-189.09 2170.43,-188.79 2161.96,-182.42 2159.84,-189.09"/>
<text text-anchor="middle" x="1971.1" y="-178.8" font-family="Times,serif" font-size="14.00">&#39;\r&#39;/exit_seqline</text>
</g>
<!-- eof11 -->
<g id="node14" class="node">
<title>eof11</title>
<ellipse fill="black" stroke="black" cx="2192.1" cy="-102" rx="1.8" ry="1.8"/>
</g>
<!-- 11&#45;&gt;eof11 -->
<g id="edge22" class="edge">
<title>11&#45;&gt;eof11</title>
<path fill="none" stroke="black" stroke-dasharray="5,2" d="M1775.21,-128.71C1788.88,-122.11 1806.75,-114.61 1823.6,-111 1961.53,-81.47 2135.22,-96.22 2180.11,-100.8"/>
<polygon fill="black" stroke="black" points="2179.85,-104.3 2190.16,-101.89 2180.6,-97.34 2179.85,-104.3"/>
<text text-anchor="middle" x="1971.1" y="-114.8" font-family="Times,serif" font-size="14.00">EOF/exit_seqline,exit_record</text>
</g>
<!-- 12&#45;&gt;12 -->
<g id="edge34" class="edge">
<title>12&#45;&gt;12</title>
<path fill="none" stroke="black" d="M2718.07,-210.25C2713.78,-222.8 2719.71,-234.75 2735.84,-234.75 2747.57,-234.75 2753.9,-228.44 2754.85,-220.18"/>
<polygon fill="black" stroke="black" points="2758.32,-219.74 2753.62,-210.25 2751.37,-220.6 2758.32,-219.74"/>
<text text-anchor="middle" x="2735.84" y="-238.55" font-family="Times,serif" font-size="14.00">&#39;\n&#39;</text>
</g>
<!-- 12&#45;&gt;13 -->
<g id="edge35" class="edge">
<title>12&#45;&gt;13</title>
<path fill="none" stroke="black" d="M2760.58,-201.33C2766.98,-204.1 2773.97,-206.88 2780.59,-209 2831.23,-225.23 2853.3,-204.58 2897.59,-234 2908.01,-240.92 2916.51,-251.58 2922.93,-261.81"/>
<polygon fill="black" stroke="black" points="2919.98,-263.71 2928.04,-270.6 2926.04,-260.19 2919.98,-263.71"/>
<text text-anchor="middle" x="2839.09" y="-237.8" font-family="Times,serif" font-size="14.00">&#39;\r&#39;</text>
</g>
<!-- 12&#45;&gt;14 -->
<g id="edge36" class="edge">
<title>12&#45;&gt;14</title>
<path fill="none" stroke="black" d="M2711.72,-202.1C2705.19,-205.08 2697.99,-208 2691.1,-210 2668.37,-216.59 2606.25,-224.01 2566.23,-228.32"/>
<polygon fill="black" stroke="black" points="2565.64,-224.87 2556.07,-229.41 2566.38,-231.83 2565.64,-224.87"/>
<text text-anchor="middle" x="2632.6" y="-230.8" font-family="Times,serif" font-size="14.00">[\t\v\f ]</text>
</g>
<!-- eof12 -->
<g id="node20" class="node">
<title>eof12</title>
<ellipse fill="black" stroke="black" cx="2938.34" cy="-190" rx="1.8" ry="1.8"/>
</g>
<!-- 12&#45;&gt;eof12 -->
<g id="edge37" class="edge">
<title>12&#45;&gt;eof12</title>
<path fill="none" stroke="black" stroke-dasharray="5,2" d="M2762.64,-190C2806.67,-190 2894.58,-190 2925.92,-190"/>
<polygon fill="black" stroke="black" points="2925.97,-193.5 2935.97,-190 2925.97,-186.5 2925.97,-193.5"/>
<text text-anchor="middle" x="2839.09" y="-193.8" font-family="Times,serif" font-size="14.00">EOF/exit_record</text>
</g>
<!-- 13&#45;&gt;12 -->
<g id="edge33" class="edge">
<title>13&#45;&gt;12</title>
<path fill="none" stroke="black" d="M2916.38,-284.35C2910.34,-282.53 2903.73,-280.61 2897.59,-279 2846.06,-265.52 2824.82,-282.69 2780.59,-253 2769.34,-245.44 2760.12,-233.94 2753.09,-222.82"/>
<polygon fill="black" stroke="black" points="2756.03,-220.9 2747.93,-214.06 2750,-224.45 2756.03,-220.9"/>
<text text-anchor="middle" x="2839.09" y="-282.8" font-family="Times,serif" font-size="14.00">&#39;\n&#39;</text>
</g>
<!-- 14&#45;&gt;12 -->
<g id="edge30" class="edge">
<title>14&#45;&gt;12</title>
<path fill="none" stroke="black" d="M2548.09,-212.28C2555.41,-205.51 2564.44,-198.71 2574.1,-195 2614.79,-179.38 2665.62,-180.95 2699.1,-184.55"/>
<polygon fill="black" stroke="black" points="2698.98,-188.06 2709.33,-185.78 2699.82,-181.11 2698.98,-188.06"/>
<text text-anchor="middle" x="2632.6" y="-198.8" font-family="Times,serif" font-size="14.00">&#39;\n&#39;</text>
</g>
<!-- 14&#45;&gt;13 -->
<g id="edge31" class="edge">
<title>14&#45;&gt;13</title>
<path fill="none" stroke="black" d="M2543.05,-255.03C2550.52,-266.17 2561.07,-278.51 2574.1,-285 2685.33,-340.41 2840.51,-314.08 2906.1,-299.01"/>
<polygon fill="black" stroke="black" points="2907.28,-302.33 2916.2,-296.62 2905.66,-295.52 2907.28,-302.33"/>
<text text-anchor="middle" x="2735.84" y="-321.8" font-family="Times,serif" font-size="14.00">&#39;\r&#39;</text>
</g>
<!-- eof14 -->
<g id="node19" class="node">
<title>eof14</title>
<ellipse fill="black" stroke="black" cx="2735.84" cy="-270" rx="1.8" ry="1.8"/>
</g>
<!-- 14&#45;&gt;eof14 -->
<g id="edge32" class="edge">
<title>14&#45;&gt;eof14</title>
<path fill="none" stroke="black" stroke-dasharray="5,2" d="M2554.59,-241.91C2560.86,-244.19 2567.66,-246.4 2574.1,-248 2629.2,-261.68 2697.18,-267.46 2723.6,-269.29"/>
<polygon fill="black" stroke="black" points="2723.61,-272.8 2733.81,-269.94 2724.05,-265.82 2723.61,-272.8"/>
<text text-anchor="middle" x="2632.6" y="-269.8" font-family="Times,serif" font-size="14.00">EOF/exit_record</text>
</g>
</g>
</svg>
