<?xml version="1.0" encoding="UTF-8" standalone="no"?>
<!DOCTYPE svg PUBLIC "-//W3C//DTD SVG 1.1//EN"
 "http://www.w3.org/Graphics/SVG/1.1/DTD/svg11.dtd">
<!-- Generated by graphviz version 2.44.1 (0)
 -->
<!-- Pages: 1 -->
<svg width="1135pt" height="116pt"
 viewBox="0.00 0.00 1135.20 116.00" xmlns="http://www.w3.org/2000/svg" xmlns:xlink="http://www.w3.org/1999/xlink">
<g id="graph0" class="graph" transform="scale(1 1) rotate(0) translate(4 112)">
<polygon fill="white" stroke="transparent" points="-4,4 -4,-112 1131.2,-112 1131.2,4 -4,4"/>
<!-- start -->
<g id="node1" class="node">
<title>start</title>
<ellipse fill="black" stroke="black" cx="1.8" cy="-22" rx="1.8" ry="1.8"/>
</g>
<!-- 1 -->
<g id="node2" class="node">
<title>1</title>
<ellipse fill="none" stroke="black" cx="62.6" cy="-22" rx="18" ry="18"/>
<ellipse fill="none" stroke="black" cx="62.6" cy="-22" rx="22" ry="22"/>
<text text-anchor="middle" x="62.6" y="-18.3" font-family="Times,serif" font-size="14.00">1</text>
</g>
<!-- start&#45;&gt;1 -->
<g id="edge1" class="edge">
<title>start&#45;&gt;1</title>
<path fill="none" stroke="black" d="M3.82,-22C7.19,-22 18.44,-22 30.12,-22"/>
<polygon fill="black" stroke="black" points="30.31,-25.5 40.31,-22 30.31,-18.5 30.31,-25.5"/>
</g>
<!-- 2 -->
<g id="node3" class="node">
<title>2</title>
<ellipse fill="none" stroke="black" cx="201.6" cy="-22" rx="18" ry="18"/>
<text text-anchor="middle" x="201.6" y="-18.3" font-family="Times,serif" font-size="14.00">2</text>
</g>
<!-- 1&#45;&gt;2 -->
<g id="edge2" class="edge">
<title>1&#45;&gt;2</title>
<path fill="none" stroke="black" d="M84.71,-22C108.48,-22 147.19,-22 173.26,-22"/>
<polygon fill="black" stroke="black" points="173.58,-25.5 183.58,-22 173.58,-18.5 173.58,-25.5"/>
<text text-anchor="middle" x="134.1" y="-25.8" font-family="Times,serif" font-size="14.00">&#39;&gt;&#39;/enter</text>
</g>
<!-- 3 -->
<g id="node4" class="node">
<title>3</title>
<ellipse fill="none" stroke="black" cx="304.6" cy="-54" rx="18" ry="18"/>
<text text-anchor="middle" x="304.6" y="-50.3" font-family="Times,serif" font-size="14.00">3</text>
</g>
<!-- 2&#45;&gt;3 -->
<g id="edge3" class="edge">
<title>2&#45;&gt;3</title>
<path fill="none" stroke="black" d="M219.28,-27.28C235.16,-32.32 259.31,-39.97 277.7,-45.79"/>
<polygon fill="black" stroke="black" points="276.64,-49.13 287.23,-48.81 278.76,-42.46 276.64,-49.13"/>
<text text-anchor="middle" x="253.1" y="-45.8" font-family="Times,serif" font-size="14.00">[a&#45;z]</text>
</g>
<!-- 3&#45;&gt;3 -->
<g id="edge5" class="edge">
<title>3&#45;&gt;3</title>
<path fill="none" stroke="black" d="M295.97,-69.92C293.71,-80.15 296.59,-90 304.6,-90 309.86,-90 312.9,-85.76 313.74,-79.95"/>
<polygon fill="black" stroke="black" points="317.23,-79.73 313.23,-69.92 310.24,-80.08 317.23,-79.73"/>
<text text-anchor="middle" x="304.6" y="-93.8" font-family="Times,serif" font-size="14.00">[a&#45;z]</text>
</g>
<!-- 4 -->
<g id="node5" class="node">
<title>4</title>
<ellipse fill="none" stroke="black" cx="540.6" cy="-57" rx="18" ry="18"/>
<text text-anchor="middle" x="540.6" y="-53.3" font-family="Times,serif" font-size="14.00">4</text>
</g>
<!-- 3&#45;&gt;4 -->
<g id="edge4" class="edge">
<title>3&#45;&gt;4</title>
<path fill="none" stroke="black" d="M322.81,-54.22C363.04,-54.74 463.52,-56.02 512.25,-56.65"/>
<polygon fill="black" stroke="black" points="512.32,-60.15 522.37,-56.78 512.41,-53.15 512.32,-60.15"/>
<text text-anchor="middle" x="395.1" y="-58.8" font-family="Times,serif" font-size="14.00">&#39;\n&#39;/exit_header</text>
</g>
<!-- 5 -->
<g id="node6" class="node">
<title>5</title>
<ellipse fill="none" stroke="black" cx="761.6" cy="-57" rx="18" ry="18"/>
<text text-anchor="middle" x="761.6" y="-53.3" font-family="Times,serif" font-size="14.00">5</text>
</g>
<!-- 4&#45;&gt;5 -->
<g id="edge6" class="edge">
<title>4&#45;&gt;5</title>
<path fill="none" stroke="black" d="M558.78,-57C596.68,-57 687.7,-57 733.42,-57"/>
<polygon fill="black" stroke="black" points="733.5,-60.5 743.5,-57 733.5,-53.5 733.5,-60.5"/>
<text text-anchor="middle" x="678.6" y="-60.8" font-family="Times,serif" font-size="14.00">[ACGT]/enter</text>
</g>
<!-- 5&#45;&gt;5 -->
<g id="edge8" class="edge">
<title>5&#45;&gt;5</title>
<path fill="none" stroke="black" d="M748.76,-69.92C742.91,-81.13 747.19,-93 761.6,-93 771.73,-93 776.86,-87.13 776.97,-79.75"/>
<polygon fill="black" stroke="black" points="780.32,-78.73 774.44,-69.92 773.55,-80.48 780.32,-78.73"/>
<text text-anchor="middle" x="761.6" y="-96.8" font-family="Times,serif" font-size="14.00">[ACGT]</text>
</g>
<!-- 6 -->
<g id="node7" class="node">
<title>6</title>
<ellipse fill="none" stroke="black" cx="948.6" cy="-39" rx="18" ry="18"/>
<ellipse fill="none" stroke="black" cx="948.6" cy="-39" rx="22" ry="22"/>
<text text-anchor="middle" x="948.6" y="-35.3" font-family="Times,serif" font-size="14.00">6</text>
</g>
<!-- 5&#45;&gt;6 -->
<g id="edge7" class="edge">
<title>5&#45;&gt;6</title>
<path fill="none" stroke="black" d="M779.91,-58.83C807.47,-61.28 862.9,-64.34 908.6,-55 912.08,-54.29 915.63,-53.28 919.12,-52.1"/>
<polygon fill="black" stroke="black" points="920.53,-55.31 928.61,-48.46 918.02,-48.77 920.53,-55.31"/>
<text text-anchor="middle" x="853.1" y="-64.8" font-family="Times,serif" font-size="14.00">&#39;\n&#39;/exit_seqline</text>
</g>
<!-- 6&#45;&gt;2 -->
<g id="edge10" class="edge">
<title>6&#45;&gt;2</title>
<path fill="none" stroke="black" d="M928.01,-31.04C921.88,-28.8 915.03,-26.55 908.6,-25 844.99,-9.63 828.04,-6 762.6,-6 303.6,-6 303.6,-6 303.6,-6 278.05,-6 249.31,-11.06 229.04,-15.48"/>
<polygon fill="black" stroke="black" points="228.24,-12.08 219.27,-17.71 229.8,-18.9 228.24,-12.08"/>
<text text-anchor="middle" x="540.6" y="-9.8" font-family="Times,serif" font-size="14.00">&#39;&gt;&#39;/enter,exit_record</text>
</g>
<!-- 6&#45;&gt;5 -->
<g id="edge9" class="edge">
<title>6&#45;&gt;5</title>
<path fill="none" stroke="black" d="M926.75,-34.89C897.35,-29.91 842.28,-23.62 797.6,-36 793.37,-37.17 789.15,-39 785.17,-41.11"/>
<polygon fill="black" stroke="black" points="783.22,-38.19 776.44,-46.33 786.82,-44.2 783.22,-38.19"/>
<text text-anchor="middle" x="853.1" y="-39.8" font-family="Times,serif" font-size="14.00">[ACGT]/enter</text>
</g>
<!-- eof6 -->
<g id="node8" class="node">
<title>eof6</title>
<ellipse fill="black" stroke="black" cx="1125.4" cy="-39" rx="1.8" ry="1.8"/>
</g>
<!-- 6&#45;&gt;eof6 -->
<g id="edge11" class="edge">
<title>6&#45;&gt;eof6</title>
<path fill="none" stroke="black" stroke-dasharray="5,2" d="M970.68,-39C1007.97,-39 1084.32,-39 1113.09,-39"/>
<polygon fill="black" stroke="black" points="1113.18,-42.5 1123.18,-39 1113.18,-35.5 1113.18,-42.5"/>
<text text-anchor="middle" x="1047.1" y="-42.8" font-family="Times,serif" font-size="14.00">EOF/exit_record</text>
</g>
</g>
</svg>
