<?xml version="1.0" encoding="UTF-8" standalone="no"?>
<!DOCTYPE svg PUBLIC "-//W3C//DTD SVG 1.1//EN"
 "http://www.w3.org/Graphics/SVG/1.1/DTD/svg11.dtd">
<!-- Generated by graphviz version 2.44.1 (0)
 -->
<!-- Pages: 1 -->
<svg width="1151pt" height="113pt"
 viewBox="0.00 0.00 1151.20 113.00" xmlns="http://www.w3.org/2000/svg" xmlns:xlink="http://www.w3.org/1999/xlink">
<g id="graph0" class="graph" transform="scale(1 1) rotate(0) translate(4 109)">
<polygon fill="white" stroke="transparent" points="-4,4 -4,-109 1147.2,-109 1147.2,4 -4,4"/>
<!-- start -->
<g id="node1" class="node">
<title>start</title>
<ellipse fill="black" stroke="black" cx="1.8" cy="-22" rx="1.8" ry="1.8"/>
</g>
<!-- 1 -->
<g id="node2" class="node">
<title>1</title>
<ellipse fill="none" stroke="black" cx="62.6" cy="-22" rx="18" ry="18"/>
<ellipse fill="none" stroke="black" cx="62.6" cy="-22" rx="22" ry="22"/>
<text text-anchor="middle" x="62.6" y="-18.3" font-family="Times,serif" font-size="14.00">1</text>
</g>
<!-- start&#45;&gt;1 -->
<g id="edge1" class="edge">
<title>start&#45;&gt;1</title>
<path fill="none" stroke="black" d="M3.82,-22C7.19,-22 18.44,-22 30.12,-22"/>
<polygon fill="black" stroke="black" points="30.31,-25.5 40.31,-22 30.31,-18.5 30.31,-25.5"/>
</g>
<!-- 2 -->
<g id="node3" class="node">
<title>2</title>
<ellipse fill="none" stroke="black" cx="201.6" cy="-22" rx="18" ry="18"/>
<text text-anchor="middle" x="201.6" y="-18.3" font-family="Times,serif" font-size="14.00">2</text>
</g>
<!-- 1&#45;&gt;2 -->
<g id="edge2" class="edge">
<title>1&#45;&gt;2</title>
<path fill="none" stroke="black" d="M84.71,-22C108.48,-22 147.19,-22 173.26,-22"/>
<polygon fill="black" stroke="black" points="173.58,-25.5 183.58,-22 173.58,-18.5 173.58,-25.5"/>
<text text-anchor="middle" x="134.1" y="-25.8" font-family="Times,serif" font-size="14.00">&#39;&gt;&#39;/enter</text>
</g>
<!-- 3 -->
<g id="node4" class="node">
<title>3</title>
<ellipse fill="none" stroke="black" cx="304.6" cy="-53" rx="18" ry="18"/>
<text text-anchor="middle" x="304.6" y="-49.3" font-family="Times,serif" font-size="14.00">3</text>
</g>
<!-- 2&#45;&gt;3 -->
<g id="edge3" class="edge">
<title>2&#45;&gt;3</title>
<path fill="none" stroke="black" d="M219.28,-27.12C235.09,-31.97 259.09,-39.34 277.44,-44.97"/>
<polygon fill="black" stroke="black" points="276.65,-48.39 287.23,-47.98 278.7,-41.7 276.65,-48.39"/>
<text text-anchor="middle" x="253.1" y="-45.8" font-family="Times,serif" font-size="14.00">[a&#45;z]</text>
</g>
<!-- 3&#45;&gt;3 -->
<g id="edge5" class="edge">
<title>3&#45;&gt;3</title>
<path fill="none" stroke="black" d="M295.97,-68.92C293.71,-79.15 296.59,-89 304.6,-89 309.86,-89 312.9,-84.76 313.74,-78.95"/>
<polygon fill="black" stroke="black" points="317.23,-78.73 313.23,-68.92 310.24,-79.08 317.23,-78.73"/>
<text text-anchor="middle" x="304.6" y="-92.8" font-family="Times,serif" font-size="14.00">[a&#45;z]</text>
</g>
<!-- 4 -->
<g id="node5" class="node">
<title>4</title>
<ellipse fill="none" stroke="black" cx="540.6" cy="-57" rx="18" ry="18"/>
<text text-anchor="middle" x="540.6" y="-53.3" font-family="Times,serif" font-size="14.00">4</text>
</g>
<!-- 3&#45;&gt;4 -->
<g id="edge4" class="edge">
<title>3&#45;&gt;4</title>
<path fill="none" stroke="black" d="M322.81,-53.29C363.04,-53.98 463.52,-55.7 512.25,-56.53"/>
<polygon fill="black" stroke="black" points="512.31,-60.03 522.37,-56.71 512.43,-53.03 512.31,-60.03"/>
<text text-anchor="middle" x="395.1" y="-58.8" font-family="Times,serif" font-size="14.00">&#39;\n&#39;/exit_header</text>
</g>
<!-- 5 -->
<g id="node6" class="node">
<title>5</title>
<ellipse fill="none" stroke="black" cx="761.6" cy="-54" rx="18" ry="18"/>
<text text-anchor="middle" x="761.6" y="-50.3" font-family="Times,serif" font-size="14.00">5</text>
</g>
<!-- 4&#45;&gt;5 -->
<g id="edge6" class="edge">
<title>4&#45;&gt;5</title>
<path fill="none" stroke="black" d="M558.78,-56.76C596.68,-56.25 687.7,-55 733.42,-54.37"/>
<polygon fill="black" stroke="black" points="733.54,-57.87 743.5,-54.23 733.45,-50.87 733.54,-57.87"/>
<text text-anchor="middle" x="678.6" y="-58.8" font-family="Times,serif" font-size="14.00">[ACGT]/enter</text>
</g>
<!-- 5&#45;&gt;5 -->
<g id="edge8" class="edge">
<title>5&#45;&gt;5</title>
<path fill="none" stroke="black" d="M748.76,-66.92C742.91,-78.13 747.19,-90 761.6,-90 771.73,-90 776.86,-84.13 776.97,-76.75"/>
<polygon fill="black" stroke="black" points="780.32,-75.73 774.44,-66.92 773.55,-77.48 780.32,-75.73"/>
<text text-anchor="middle" x="761.6" y="-93.8" font-family="Times,serif" font-size="14.00">[ACGT]</text>
</g>
<!-- 6 -->
<g id="node7" class="node">
<title>6</title>
<ellipse fill="none" stroke="black" cx="964.6" cy="-22" rx="18" ry="18"/>
<ellipse fill="none" stroke="black" cx="964.6" cy="-22" rx="22" ry="22"/>
<text text-anchor="middle" x="964.6" y="-18.3" font-family="Times,serif" font-size="14.00">6</text>
</g>
<!-- 5&#45;&gt;6 -->
<g id="edge7" class="edge">
<title>5&#45;&gt;6</title>
<path fill="none" stroke="black" d="M779.74,-51.27C813.68,-45.87 889.87,-33.74 932.76,-26.91"/>
<polygon fill="black" stroke="black" points="933.32,-30.37 942.64,-25.34 932.22,-23.45 933.32,-30.37"/>
<text text-anchor="middle" x="861.1" y="-50.8" font-family="Times,serif" font-size="14.00">&#39;\n&#39;/exit_sequence</text>
</g>
<!-- 6&#45;&gt;2 -->
<g id="edge9" class="edge">
<title>6&#45;&gt;2</title>
<path fill="none" stroke="black" d="M942.52,-19.21C905.96,-14.63 828.41,-6 762.6,-6 303.6,-6 303.6,-6 303.6,-6 278.05,-6 249.31,-11.06 229.04,-15.48"/>
<polygon fill="black" stroke="black" points="228.24,-12.08 219.27,-17.71 229.8,-18.9 228.24,-12.08"/>
<text text-anchor="middle" x="540.6" y="-9.8" font-family="Times,serif" font-size="14.00">&#39;&gt;&#39;/enter,exit_record</text>
</g>
<!-- eof6 -->
<g id="node8" class="node">
<title>eof6</title>
<ellipse fill="black" stroke="black" cx="1141.4" cy="-22" rx="1.8" ry="1.8"/>
</g>
<!-- 6&#45;&gt;eof6 -->
<g id="edge10" class="edge">
<title>6&#45;&gt;eof6</title>
<path fill="none" stroke="black" stroke-dasharray="5,2" d="M986.68,-22C1023.97,-22 1100.32,-22 1129.09,-22"/>
<polygon fill="black" stroke="black" points="1129.18,-25.5 1139.18,-22 1129.18,-18.5 1129.18,-25.5"/>
<text text-anchor="middle" x="1063.1" y="-25.8" font-family="Times,serif" font-size="14.00">EOF/exit_record</text>
</g>
</g>
</svg>
