<?xml version="1.0" encoding="UTF-8" standalone="no"?>
<!DOCTYPE svg PUBLIC "-//W3C//DTD SVG 1.1//EN"
 "http://www.w3.org/Graphics/SVG/1.1/DTD/svg11.dtd">
<!-- Generated by graphviz version 2.44.1 (0)
 -->
<!-- Pages: 1 -->
<svg width="810pt" height="248pt"
 viewBox="0.00 0.00 810.37 248.34" xmlns="http://www.w3.org/2000/svg" xmlns:xlink="http://www.w3.org/1999/xlink">
<g id="graph0" class="graph" transform="scale(1 1) rotate(0) translate(4 244.34)">
<polygon fill="white" stroke="transparent" points="-4,4 -4,-244.34 806.37,-244.34 806.37,4 -4,4"/>
<!-- begin -->
<g id="node1" class="node">
<title>begin</title>
<ellipse fill="none" stroke="black" cx="36.4" cy="-36.4" rx="36.29" ry="36.29"/>
<text text-anchor="middle" x="36.4" y="-32.7" font-family="Times,serif" font-size="14.00">begin</text>
</g>
<!-- 1 -->
<g id="node3" class="node">
<title>1</title>
<ellipse fill="none" stroke="black" cx="139.79" cy="-71.4" rx="18" ry="18"/>
<text text-anchor="middle" x="139.79" y="-67.7" font-family="Times,serif" font-size="14.00">1</text>
</g>
<!-- begin&#45;&gt;1 -->
<g id="edge1" class="edge">
<title>begin&#45;&gt;1</title>
<path fill="none" stroke="black" d="M71.16,-48.05C84.8,-52.76 100.28,-58.1 112.99,-62.49"/>
<polygon fill="black" stroke="black" points="111.9,-65.82 122.5,-65.77 114.19,-59.2 111.9,-65.82"/>
<text text-anchor="middle" x="97.29" y="-63.2" font-family="Times,serif" font-size="14.00">&gt;</text>
</g>
<!-- end -->
<g id="node7" class="node">
<title>end</title>
<ellipse fill="none" stroke="black" cx="774.42" cy="-36.4" rx="27.9" ry="27.9"/>
<text text-anchor="middle" x="774.42" y="-32.7" font-family="Times,serif" font-size="14.00">end</text>
</g>
<!-- begin&#45;&gt;end -->
<g id="edge10" class="edge">
<title>begin&#45;&gt;end</title>
<path fill="none" stroke="black" d="M71.91,-28.21C91.42,-24.27 116.34,-20.4 138.79,-20.4 138.79,-20.4 138.79,-20.4 661.48,-20.4 686.9,-20.4 715.25,-24.49 737.05,-28.54"/>
<polygon fill="black" stroke="black" points="736.4,-31.98 746.89,-30.44 737.73,-25.1 736.4,-31.98"/>
<text text-anchor="middle" x="378.59" y="-24.2" font-family="Times,serif" font-size="14.00">EOF</text>
</g>
<!-- 2 -->
<g id="node2" class="node">
<title>2</title>
<ellipse fill="none" stroke="black" cx="378.59" cy="-151.4" rx="18" ry="18"/>
<text text-anchor="middle" x="378.59" y="-147.7" font-family="Times,serif" font-size="14.00">2</text>
</g>
<!-- sequence -->
<g id="node6" class="node">
<title>sequence</title>
<ellipse fill="none" stroke="black" cx="538.53" cy="-153.4" rx="53.89" ry="53.89"/>
<text text-anchor="middle" x="538.53" y="-149.7" font-family="Times,serif" font-size="14.00">sequence</text>
</g>
<!-- 2&#45;&gt;sequence -->
<g id="edge4" class="edge">
<title>2&#45;&gt;sequence</title>
<path fill="none" stroke="black" d="M396.79,-151.61C415.37,-151.85 446.09,-152.24 474.1,-152.59"/>
<polygon fill="black" stroke="black" points="474.22,-156.1 484.27,-152.72 474.31,-149.1 474.22,-156.1"/>
<text text-anchor="middle" x="440.59" y="-156.2" font-family="Times,serif" font-size="14.00">[ACGT]</text>
</g>
<!-- header -->
<g id="node5" class="node">
<title>header</title>
<ellipse fill="none" stroke="black" cx="267.69" cy="-145.4" rx="42.79" ry="42.79"/>
<text text-anchor="middle" x="267.69" y="-141.7" font-family="Times,serif" font-size="14.00">header</text>
</g>
<!-- 1&#45;&gt;header -->
<g id="edge2" class="edge">
<title>1&#45;&gt;header</title>
<path fill="none" stroke="black" d="M155.73,-80.18C171.9,-89.68 198.48,-105.3 221.57,-118.88"/>
<polygon fill="black" stroke="black" points="219.83,-121.91 230.22,-123.96 223.38,-115.88 219.83,-121.91"/>
<text text-anchor="middle" x="191.29" y="-112.2" font-family="Times,serif" font-size="14.00">[a&#45;z]</text>
</g>
<!-- 3 -->
<g id="node4" class="node">
<title>3</title>
<ellipse fill="none" stroke="black" cx="660.48" cy="-71.4" rx="18" ry="18"/>
<text text-anchor="middle" x="660.48" y="-67.7" font-family="Times,serif" font-size="14.00">3</text>
</g>
<!-- 3&#45;&gt;1 -->
<g id="edge8" class="edge">
<title>3&#45;&gt;1</title>
<path fill="none" stroke="black" d="M642.39,-71.4C619.13,-71.4 576.18,-71.4 539.53,-71.4 266.69,-71.4 266.69,-71.4 266.69,-71.4 232.65,-71.4 193.43,-71.4 167.93,-71.4"/>
<polygon fill="black" stroke="black" points="167.9,-67.9 157.9,-71.4 167.9,-74.9 167.9,-67.9"/>
<text text-anchor="middle" x="378.59" y="-75.2" font-family="Times,serif" font-size="14.00">&gt;</text>
</g>
<!-- 3&#45;&gt;end -->
<g id="edge9" class="edge">
<title>3&#45;&gt;end</title>
<path fill="none" stroke="black" d="M677.99,-66.23C693.6,-61.35 717.54,-53.87 737.54,-47.62"/>
<polygon fill="black" stroke="black" points="738.77,-50.9 747.27,-44.57 736.69,-44.22 738.77,-50.9"/>
<text text-anchor="middle" x="712.48" y="-64.2" font-family="Times,serif" font-size="14.00">EOF</text>
</g>
<!-- header&#45;&gt;2 -->
<g id="edge5" class="edge">
<title>header&#45;&gt;2</title>
<path fill="none" stroke="black" d="M310.79,-147.72C324.08,-148.45 338.4,-149.24 350.37,-149.9"/>
<polygon fill="black" stroke="black" points="350.41,-153.4 360.59,-150.46 350.8,-146.42 350.41,-153.4"/>
<text text-anchor="middle" x="335.59" y="-153.2" font-family="Times,serif" font-size="14.00">\n</text>
</g>
<!-- header&#45;&gt;header -->
<g id="edge3" class="edge">
<title>header&#45;&gt;header</title>
<path fill="none" stroke="black" d="M255.41,-186.67C256.05,-197.81 260.15,-206.29 267.69,-206.29 272.76,-206.29 276.27,-202.47 278.22,-196.57"/>
<polygon fill="black" stroke="black" points="281.68,-197.12 279.97,-186.67 274.79,-195.9 281.68,-197.12"/>
<text text-anchor="middle" x="267.69" y="-210.09" font-family="Times,serif" font-size="14.00">[a&#45;z]</text>
</g>
<!-- sequence&#45;&gt;3 -->
<g id="edge7" class="edge">
<title>sequence&#45;&gt;3</title>
<path fill="none" stroke="black" d="M583.51,-123.33C601.45,-111.06 621.45,-97.39 636.42,-87.16"/>
<polygon fill="black" stroke="black" points="638.75,-89.8 645.03,-81.27 634.8,-84.02 638.75,-89.8"/>
<text text-anchor="middle" x="617.48" y="-106.2" font-family="Times,serif" font-size="14.00">\n</text>
</g>
<!-- sequence&#45;&gt;sequence -->
<g id="edge6" class="edge">
<title>sequence&#45;&gt;sequence</title>
<path fill="none" stroke="black" d="M524.3,-205.46C525.64,-216.96 530.38,-225.34 538.53,-225.34 544.01,-225.34 547.95,-221.56 550.35,-215.59"/>
<polygon fill="black" stroke="black" points="553.85,-216 552.76,-205.46 547.04,-214.37 553.85,-216"/>
<text text-anchor="middle" x="538.53" y="-229.14" font-family="Times,serif" font-size="14.00">[ACGT]</text>
</g>
</g>
</svg>
