<?xml version="1.0" encoding="UTF-8" standalone="no"?>
<!DOCTYPE svg PUBLIC "-//W3C//DTD SVG 1.1//EN"
 "http://www.w3.org/Graphics/SVG/1.1/DTD/svg11.dtd">
<!-- Generated by graphviz version 2.44.1 (0)
 -->
<!-- Pages: 1 -->
<svg width="514pt" height="116pt"
 viewBox="0.00 0.00 513.60 116.00" xmlns="http://www.w3.org/2000/svg" xmlns:xlink="http://www.w3.org/1999/xlink">
<g id="graph0" class="graph" transform="scale(1 1) rotate(0) translate(4 112)">
<polygon fill="white" stroke="transparent" points="-4,4 -4,-112 509.6,-112 509.6,4 -4,4"/>
<!-- start -->
<g id="node1" class="node">
<title>start</title>
<ellipse fill="black" stroke="black" cx="1.8" cy="-22" rx="1.8" ry="1.8"/>
</g>
<!-- 1 -->
<g id="node2" class="node">
<title>1</title>
<ellipse fill="none" stroke="black" cx="62.6" cy="-22" rx="18" ry="18"/>
<ellipse fill="none" stroke="black" cx="62.6" cy="-22" rx="22" ry="22"/>
<text text-anchor="middle" x="62.6" y="-18.3" font-family="Times,serif" font-size="14.00">1</text>
</g>
<!-- start&#45;&gt;1 -->
<g id="edge1" class="edge">
<title>start&#45;&gt;1</title>
<path fill="none" stroke="black" d="M3.82,-22C7.19,-22 18.44,-22 30.12,-22"/>
<polygon fill="black" stroke="black" points="30.31,-25.5 40.31,-22 30.31,-18.5 30.31,-25.5"/>
</g>
<!-- 2 -->
<g id="node3" class="node">
<title>2</title>
<ellipse fill="none" stroke="black" cx="158.6" cy="-53" rx="18" ry="18"/>
<text text-anchor="middle" x="158.6" y="-49.3" font-family="Times,serif" font-size="14.00">2</text>
</g>
<!-- 1&#45;&gt;2 -->
<g id="edge2" class="edge">
<title>1&#45;&gt;2</title>
<path fill="none" stroke="black" d="M84,-28.73C97.95,-33.33 116.56,-39.47 131.58,-44.42"/>
<polygon fill="black" stroke="black" points="130.71,-47.82 141.3,-47.63 132.9,-41.17 130.71,-47.82"/>
<text text-anchor="middle" x="112.6" y="-44.8" font-family="Times,serif" font-size="14.00">&#39;&gt;&#39;</text>
</g>
<!-- 3 -->
<g id="node4" class="node">
<title>3</title>
<ellipse fill="none" stroke="black" cx="261.6" cy="-57" rx="18" ry="18"/>
<text text-anchor="middle" x="261.6" y="-53.3" font-family="Times,serif" font-size="14.00">3</text>
</g>
<!-- 2&#45;&gt;3 -->
<g id="edge3" class="edge">
<title>2&#45;&gt;3</title>
<path fill="none" stroke="black" d="M176.73,-53.68C192.19,-54.29 215.18,-55.2 233.19,-55.91"/>
<polygon fill="black" stroke="black" points="233.25,-59.42 243.38,-56.32 233.53,-52.43 233.25,-59.42"/>
<text text-anchor="middle" x="210.1" y="-58.8" font-family="Times,serif" font-size="14.00">[a&#45;z]</text>
</g>
<!-- 3&#45;&gt;3 -->
<g id="edge5" class="edge">
<title>3&#45;&gt;3</title>
<path fill="none" stroke="black" d="M253.58,-73.29C251.65,-83.39 254.32,-93 261.6,-93 266.26,-93 269.03,-89.06 269.92,-83.57"/>
<polygon fill="black" stroke="black" points="273.41,-83.18 269.62,-73.29 266.41,-83.39 273.41,-83.18"/>
<text text-anchor="middle" x="261.6" y="-96.8" font-family="Times,serif" font-size="14.00">[a&#45;z]</text>
</g>
<!-- 4 -->
<g id="node5" class="node">
<title>4</title>
<ellipse fill="none" stroke="black" cx="355.6" cy="-54" rx="18" ry="18"/>
<text text-anchor="middle" x="355.6" y="-50.3" font-family="Times,serif" font-size="14.00">4</text>
</g>
<!-- 3&#45;&gt;4 -->
<g id="edge4" class="edge">
<title>3&#45;&gt;4</title>
<path fill="none" stroke="black" d="M279.9,-56.44C293.14,-56 311.65,-55.4 326.94,-54.9"/>
<polygon fill="black" stroke="black" points="327.49,-58.39 337.37,-54.56 327.26,-51.39 327.49,-58.39"/>
<text text-anchor="middle" x="308.6" y="-58.8" font-family="Times,serif" font-size="14.00">&#39;\n&#39;</text>
</g>
<!-- 5 -->
<g id="node6" class="node">
<title>5</title>
<ellipse fill="none" stroke="black" cx="479.6" cy="-22" rx="18" ry="18"/>
<text text-anchor="middle" x="479.6" y="-18.3" font-family="Times,serif" font-size="14.00">5</text>
</g>
<!-- 4&#45;&gt;5 -->
<g id="edge6" class="edge">
<title>4&#45;&gt;5</title>
<path fill="none" stroke="black" d="M373.31,-49.62C393.66,-44.28 428.28,-35.2 452.24,-28.91"/>
<polygon fill="black" stroke="black" points="453.31,-32.25 462.09,-26.33 451.53,-25.48 453.31,-32.25"/>
<text text-anchor="middle" x="417.6" y="-47.8" font-family="Times,serif" font-size="14.00">[ACGT]</text>
</g>
<!-- 5&#45;&gt;1 -->
<g id="edge7" class="edge">
<title>5&#45;&gt;1</title>
<path fill="none" stroke="black" d="M461.72,-18.37C438.26,-13.65 394.41,-6 356.6,-6 157.6,-6 157.6,-6 157.6,-6 136.05,-6 112.11,-10.14 93.78,-14.2"/>
<polygon fill="black" stroke="black" points="92.91,-10.81 83.97,-16.49 94.5,-17.63 92.91,-10.81"/>
<text text-anchor="middle" x="261.6" y="-9.8" font-family="Times,serif" font-size="14.00">&#39;\n&#39;</text>
</g>
<!-- 5&#45;&gt;5 -->
<g id="edge8" class="edge">
<title>5&#45;&gt;5</title>
<path fill="none" stroke="black" d="M469.23,-36.79C465.85,-47.42 469.31,-58 479.6,-58 486.52,-58 490.35,-53.22 491.09,-46.86"/>
<polygon fill="black" stroke="black" points="494.55,-46.35 489.97,-36.79 487.6,-47.12 494.55,-46.35"/>
<text text-anchor="middle" x="479.6" y="-61.8" font-family="Times,serif" font-size="14.00">[ACGT]</text>
</g>
</g>
</svg>
